<svg version="1.1" xmlns="http://www.w3.org/2000/svg" xmlns:xlink="http://www.w3.org/1999/xlink" x="0px" y="0px" width="36.8px" height="44.8px" viewBox="0 0 36.8 44.8" style="enable-background:new 0 0 36.8 44.8;" xml:space="preserve">
<style>.color{fill:#a65f13}</style>
<path class="color" d="M34.5,16.2c-0.2,0-0.8,0-1.7,0c0-1,0-1.6,0-1.8c0-8-6.4-14.4-14.4-14.4C10.5,0,4,6.4,4,14.4c0,0.2,0,0.8,0,1.8
c-0.8,0-1.4,0-1.6,0c-1.6,0-2.4,1.3-2.4,2.5s0,21.9,0,23.3c0,1.5,1.1,2.7,2.4,2.7c1,0,30.8,0,32.1,0c1.3,0,2.3-1.2,2.3-2.7
c0-1.2,0-22.3,0-23.3C36.8,17.3,36.2,16.2,34.5,16.2z M20.9,31.7V38H16v-6.3c-1.3-0.8-2.2-2.4-2.2-4.1c0-2.6,2.1-4.7,4.7-4.7
c2.6,0,4.7,2.1,4.7,4.7C23.3,29.4,22.3,30.9,20.9,31.7z M28.8,16.2c-5.9,0-14.9,0-20.7,0c0-0.9,0-1.6,0-1.8C8,8.7,12.7,4,18.4,4
c5.7,0,10.4,4.6,10.4,10.4C28.8,14.6,28.8,15.2,28.8,16.2z"/>
</svg>