<svg version="1.1" xmlns="http://www.w3.org/2000/svg" xmlns:xlink="http://www.w3.org/1999/xlink" x="0px" y="0px" width="62.9px" height="79.2px" viewBox="0 0 62.9 79.2" style="enable-background:new 0 0 62.9 79.2;" xml:space="preserve">
<style>.color{fill:#fff;}</style>
<path class="color" d="M50,38V16.8H20.4v-6.1c0,0,0.1,0,0.1,0l9.7-5c0.3-0.2,0.3-0.8,0-1L20.5,0c0,0-0.1,0-0.1,0v0h-1.7v16.8H14V38H0
v41.2h62.9V38H50z M22,72.9H11.2V62H22V72.9z M22,56.1H11.2V45.2H22V56.1z M37.3,72.9H26.4V62h10.8V72.9z M37.3,56.1H26.4V45.2h10.8
V56.1z M37.3,38H26.4V27.1h10.8V38z M52.4,73.2H41.6V62.4h10.8V73.2z M52.4,56.4H41.6V45.5h10.8V56.4z"/>
</svg>