<svg version="1.1" xmlns="http://www.w3.org/2000/svg" xmlns:xlink="http://www.w3.org/1999/xlink" x="0px" y="0px" width="15.4px" height="15.6px" viewBox="0 0 15.4 15.6" style="enable-background:new 0 0 15.4 15.6;" xml:space="preserve">
<style>.color {fill:#a65f13;}</style>
<g>
	<path class="color" d="M6,0H0.6C0.3,0,0.1,0.2,0.1,0.5v5.4c0,0.3,0.2,0.5,0.5,0.5H6c0.3,0,0.5-0.2,0.5-0.5V0.5C6.5,0.2,6.3,0,6,0z"/>
	<path class="color" d="M14.9,0H9.5C9.2,0,9,0.2,9,0.5v5.4c0,0.3,0.2,0.5,0.5,0.5h5.4c0.3,0,0.5-0.2,0.5-0.5V0.5
		C15.4,0.2,15.2,0,14.9,0z"/>
	<path class="color" d="M5.9,9.1H0.5C0.2,9.1,0,9.3,0,9.6V15c0,0.3,0.2,0.5,0.5,0.5h5.4c0.3,0,0.5-0.2,0.5-0.5V9.6
		C6.4,9.3,6.2,9.1,5.9,9.1z"/>
	<path class="color" d="M14.9,9.2H9.5C9.2,9.2,9,9.4,9,9.7v5.4c0,0.3,0.2,0.5,0.5,0.5h5.4c0.3,0,0.5-0.2,0.5-0.5V9.7
		C15.4,9.4,15.2,9.2,14.9,9.2z"/>
</g>
</svg>
